<svg width="86" height="48" viewBox="0 0 86 48" fill="none" xmlns="http://www.w3.org/2000/svg">
<path d="M52.1925 7.14139L51.6989 6.28479C51.3256 5.63696 51.139 5.31305 50.8214 5.18388C50.5038 5.05472 50.1446 5.15664 49.4263 5.36048L48.2061 5.70418C47.7475 5.80994 47.2663 5.74994 46.8476 5.53479L46.5107 5.34042C46.1516 5.11043 45.8754 4.77133 45.7225 4.37274L45.3886 3.37536C45.169 2.71534 45.0592 2.38533 44.7978 2.19657C44.5365 2.00781 44.1893 2.00781 43.4949 2.00781H42.3801C41.6858 2.00781 41.3386 2.00781 41.0772 2.19657C40.8158 2.38533 40.7061 2.71534 40.4865 3.37536L40.1525 4.37274C39.9996 4.77133 39.7234 5.11043 39.3644 5.34042L39.0275 5.53479C38.6087 5.74994 38.1276 5.80994 37.669 5.70418L36.4487 5.36048C35.7304 5.15664 35.3712 5.05472 35.0537 5.18388C34.7361 5.31305 34.5494 5.63696 34.1761 6.28479L33.6826 7.14139C33.3327 7.74864 33.1577 8.05227 33.1917 8.37549C33.2256 8.69871 33.4598 8.95918 33.9283 9.48012L34.9593 10.6328C35.2113 10.9518 35.3902 11.5078 35.3902 12.0077C35.3902 12.5078 35.2114 13.0636 34.9593 13.3827L33.9283 14.5354C33.4598 15.0564 33.2256 15.3168 33.1917 15.6401C33.1577 15.9633 33.3327 16.2669 33.6826 16.8741L34.1761 17.7307C34.5494 18.3785 34.7361 18.7025 35.0537 18.8316C35.3712 18.9608 35.7304 18.8589 36.4488 18.655L37.6689 18.3113C38.1276 18.2055 38.6089 18.2656 39.0277 18.4808L39.3645 18.6752C39.7235 18.9052 39.9996 19.2442 40.1525 19.6428L40.4865 20.6403C40.7061 21.3003 40.8158 21.6303 41.0772 21.8191C41.3386 22.0078 41.6858 22.0078 42.3801 22.0078H43.4949C44.1893 22.0078 44.5365 22.0078 44.7978 21.8191C45.0592 21.6303 45.169 21.3003 45.3886 20.6403L45.7226 19.6428C45.8754 19.2442 46.1515 18.9052 46.5106 18.6752L46.8474 18.4808C47.2662 18.2656 47.7474 18.2055 48.2061 18.3113L49.4263 18.655C50.1446 18.8589 50.5038 18.9608 50.8214 18.8316C51.139 18.7025 51.3256 18.3785 51.6989 17.7307L52.1925 16.8741C52.5424 16.2669 52.7173 15.9633 52.6834 15.6401C52.6494 15.3168 52.4152 15.0564 51.9468 14.5354L50.9157 13.3827C50.6637 13.0636 50.4848 12.5078 50.4848 12.0077C50.4848 11.5078 50.6638 10.9518 50.9157 10.6328L51.9468 9.48012C52.4152 8.95918 52.6494 8.69871 52.6834 8.37549C52.7173 8.05227 52.5424 7.74864 52.1925 7.14139Z" fill="#062C08" stroke="#062C08" stroke-width="1.5" stroke-linecap="round"/>
<path d="M46.3945 12C46.3945 13.933 44.8275 15.5 42.8945 15.5C40.9615 15.5 39.3945 13.933 39.3945 12C39.3945 10.067 40.9615 8.5 42.8945 8.5C44.8275 8.5 46.3945 10.067 46.3945 12Z" fill="white"/>
<path d="M20.8186 35.62C21.6493 35.62 22.3679 35.7787 22.9746 36.096C23.5813 36.404 24.0946 36.8613 24.5146 37.468L23.5066 38.434C23.1519 37.8927 22.7506 37.5053 22.3026 37.272C21.8639 37.0293 21.3413 36.908 20.7346 36.908C20.2866 36.908 19.9179 36.9687 19.6286 37.09C19.3393 37.2113 19.1246 37.3747 18.9846 37.58C18.8539 37.776 18.7886 38 18.7886 38.252C18.7886 38.5413 18.8866 38.7933 19.0826 39.008C19.2879 39.2227 19.6659 39.3907 20.2166 39.512L22.0926 39.932C22.9886 40.128 23.6233 40.4267 23.9966 40.828C24.3699 41.2293 24.5566 41.738 24.5566 42.354C24.5566 42.9233 24.4026 43.418 24.0946 43.838C23.7866 44.258 23.3573 44.58 22.8066 44.804C22.2653 45.028 21.6259 45.14 20.8886 45.14C20.2353 45.14 19.6473 45.056 19.1246 44.888C18.6019 44.72 18.1446 44.4913 17.7526 44.202C17.3606 43.9127 17.0386 43.5813 16.7866 43.208L17.8226 42.172C18.0186 42.4987 18.2659 42.7927 18.5646 43.054C18.8633 43.306 19.2086 43.502 19.6006 43.642C20.0019 43.782 20.4453 43.852 20.9306 43.852C21.3599 43.852 21.7286 43.8007 22.0366 43.698C22.3539 43.5953 22.5919 43.446 22.7506 43.25C22.9186 43.0447 23.0026 42.802 23.0026 42.522C23.0026 42.2513 22.9093 42.0133 22.7226 41.808C22.5453 41.6027 22.2093 41.444 21.7146 41.332L19.6846 40.87C19.1246 40.7487 18.6626 40.576 18.2986 40.352C17.9346 40.128 17.6639 39.8573 17.4866 39.54C17.3093 39.2133 17.2206 38.8493 17.2206 38.448C17.2206 37.9253 17.3606 37.454 17.6406 37.034C17.9299 36.6047 18.3453 36.264 18.8866 36.012C19.4279 35.7507 20.0719 35.62 20.8186 35.62ZM29.191 45.14C28.491 45.14 27.875 44.9953 27.343 44.706C26.811 44.4167 26.3957 44.0013 26.097 43.46C25.8077 42.9093 25.663 42.256 25.663 41.5C25.663 40.744 25.8077 40.0953 26.097 39.554C26.3957 39.0033 26.8064 38.5833 27.329 38.294C27.8517 38.0047 28.4444 37.86 29.107 37.86C29.7884 37.86 30.367 38 30.843 38.28C31.319 38.56 31.683 38.9427 31.935 39.428C32.187 39.9133 32.313 40.464 32.313 41.08C32.313 41.248 32.3084 41.4067 32.299 41.556C32.2897 41.7053 32.2757 41.836 32.257 41.948H26.629V40.8H31.599L30.857 41.024C30.857 40.3893 30.6984 39.904 30.381 39.568C30.0637 39.2227 29.6297 39.05 29.079 39.05C28.6777 39.05 28.3277 39.1433 28.029 39.33C27.7304 39.5167 27.5017 39.7967 27.343 40.17C27.1844 40.534 27.105 40.982 27.105 41.514C27.105 42.0367 27.189 42.48 27.357 42.844C27.525 43.208 27.763 43.4833 28.071 43.67C28.379 43.8567 28.743 43.95 29.163 43.95C29.6297 43.95 30.0077 43.8613 30.297 43.684C30.5864 43.5067 30.815 43.2593 30.983 42.942L32.173 43.502C32.005 43.838 31.7764 44.132 31.487 44.384C31.207 44.6267 30.871 44.8133 30.479 44.944C30.087 45.0747 29.6577 45.14 29.191 45.14ZM35.7547 35.942V42.9C35.7547 43.2453 35.8434 43.4973 36.0207 43.656C36.2074 43.8147 36.4547 43.894 36.7627 43.894C37.0147 43.894 37.234 43.8567 37.4207 43.782C37.6074 43.698 37.78 43.586 37.9387 43.446L38.2747 44.538C38.06 44.7247 37.794 44.874 37.4767 44.986C37.1687 45.0887 36.8234 45.14 36.4407 45.14C36.0394 45.14 35.6707 45.0747 35.3347 44.944C34.9987 44.8133 34.7374 44.6033 34.5507 44.314C34.364 44.0153 34.266 43.628 34.2567 43.152V36.362L35.7547 35.942ZM38.1627 38V39.176H32.9127V38H38.1627ZM40.5653 35.942V42.9C40.5653 43.2453 40.654 43.4973 40.8313 43.656C41.018 43.8147 41.2653 43.894 41.5733 43.894C41.8253 43.894 42.0447 43.8567 42.2313 43.782C42.418 43.698 42.5907 43.586 42.7493 43.446L43.0853 44.538C42.8707 44.7247 42.6047 44.874 42.2873 44.986C41.9793 45.0887 41.634 45.14 41.2513 45.14C40.85 45.14 40.4813 45.0747 40.1453 44.944C39.8093 44.8133 39.548 44.6033 39.3613 44.314C39.1747 44.0153 39.0767 43.628 39.0673 43.152V36.362L40.5653 35.942ZM42.9733 38V39.176H37.7233V38H42.9733ZM44.8809 36.824C44.5543 36.824 44.3023 36.7447 44.1249 36.586C43.9569 36.418 43.8729 36.1847 43.8729 35.886C43.8729 35.5873 43.9569 35.3587 44.1249 35.2C44.3023 35.0413 44.5543 34.962 44.8809 34.962C45.1983 34.962 45.4409 35.0413 45.6089 35.2C45.7863 35.3587 45.8749 35.5873 45.8749 35.886C45.8749 36.1847 45.7863 36.418 45.6089 36.586C45.4409 36.7447 45.1983 36.824 44.8809 36.824ZM45.6229 38V45H44.1249V38H45.6229ZM47.6367 45V38H48.9667L49.0647 39.82L48.8687 39.624C48.9994 39.2227 49.1861 38.8913 49.4287 38.63C49.6807 38.3593 49.9747 38.1633 50.3107 38.042C50.6561 37.9207 51.0201 37.86 51.4027 37.86C51.8974 37.86 52.3407 37.958 52.7327 38.154C53.1341 38.3407 53.4514 38.6253 53.6847 39.008C53.9181 39.3907 54.0347 39.876 54.0347 40.464V45H52.5367V40.926C52.5367 40.2353 52.3921 39.7593 52.1027 39.498C51.8227 39.2273 51.4681 39.092 51.0387 39.092C50.7307 39.092 50.4321 39.1667 50.1427 39.316C49.8534 39.456 49.6107 39.6847 49.4147 40.002C49.2281 40.3193 49.1347 40.744 49.1347 41.276V45H47.6367ZM62.1347 36.53L62.3727 37.706C62.3447 37.706 62.3167 37.706 62.2887 37.706C62.2607 37.6967 62.2327 37.692 62.2047 37.692C61.7567 37.692 61.416 37.79 61.1827 37.986C60.9494 38.1727 60.8327 38.448 60.8327 38.812L60.1047 38.476C60.1047 38.1027 60.184 37.7713 60.3427 37.482C60.5014 37.1833 60.7254 36.95 61.0147 36.782C61.3134 36.614 61.6494 36.53 62.0227 36.53C62.0414 36.53 62.06 36.53 62.0787 36.53C62.0974 36.53 62.116 36.53 62.1347 36.53ZM59.9227 43.908C60.632 43.908 61.1827 44.0667 61.5747 44.384C61.9667 44.692 62.1627 45.1213 62.1627 45.672C62.1627 46.1573 62.0087 46.5727 61.7007 46.918C61.3927 47.2727 60.9727 47.5433 60.4407 47.73C59.918 47.9167 59.316 48.01 58.6347 48.01C57.4867 48.01 56.6374 47.8327 56.0867 47.478C55.536 47.1233 55.2607 46.68 55.2607 46.148C55.2607 45.7747 55.3914 45.448 55.6527 45.168C55.9234 44.888 56.376 44.7293 57.0107 44.692L56.9267 44.916C56.5347 44.832 56.2174 44.6827 55.9747 44.468C55.7414 44.244 55.6247 43.9313 55.6247 43.53C55.6247 43.1287 55.7787 42.788 56.0867 42.508C56.3947 42.228 56.8287 42.0647 57.3887 42.018L58.1727 42.396H58.0047C57.5754 42.4333 57.272 42.5313 57.0947 42.69C56.9174 42.8487 56.8287 43.026 56.8287 43.222C56.8287 43.4553 56.9127 43.628 57.0807 43.74C57.258 43.852 57.5054 43.908 57.8227 43.908H59.9227ZM58.6347 46.89C59.148 46.89 59.568 46.8387 59.8947 46.736C60.2307 46.6427 60.478 46.5167 60.6367 46.358C60.8047 46.2087 60.8887 46.0407 60.8887 45.854C60.8887 45.6393 60.8 45.4667 60.6227 45.336C60.4547 45.2053 60.1467 45.14 59.6987 45.14H57.4447C57.1834 45.14 56.964 45.2053 56.7867 45.336C56.6094 45.476 56.5207 45.6627 56.5207 45.896C56.5207 46.204 56.7074 46.4467 57.0807 46.624C57.454 46.8013 57.972 46.89 58.6347 46.89ZM58.5787 37.86C59.1947 37.86 59.7267 37.958 60.1747 38.154C60.632 38.35 60.982 38.6253 61.2247 38.98C61.4767 39.3347 61.6027 39.75 61.6027 40.226C61.6027 40.702 61.4767 41.1173 61.2247 41.472C60.982 41.8267 60.632 42.102 60.1747 42.298C59.7267 42.494 59.1947 42.592 58.5787 42.592C57.608 42.592 56.8614 42.3773 56.3387 41.948C55.8254 41.5093 55.5687 40.9353 55.5687 40.226C55.5687 39.75 55.6947 39.3347 55.9467 38.98C56.1987 38.6253 56.5487 38.35 56.9967 38.154C57.454 37.958 57.9814 37.86 58.5787 37.86ZM58.5787 38.91C58.1494 38.91 57.79 39.0313 57.5007 39.274C57.2207 39.5073 57.0807 39.8247 57.0807 40.226C57.0807 40.6273 57.2207 40.9493 57.5007 41.192C57.79 41.4347 58.1494 41.556 58.5787 41.556C59.0174 41.556 59.3767 41.4347 59.6567 41.192C59.946 40.9493 60.0907 40.6273 60.0907 40.226C60.0907 39.8247 59.946 39.5073 59.6567 39.274C59.3767 39.0313 59.0174 38.91 58.5787 38.91ZM65.8652 45.14C65.1652 45.14 64.5259 45.0047 63.9472 44.734C63.3686 44.4633 62.9112 44.0807 62.5752 43.586L63.6112 42.69C63.8166 43.0727 64.1106 43.3807 64.4932 43.614C64.8852 43.838 65.3519 43.95 65.8932 43.95C66.3226 43.95 66.6632 43.8753 66.9152 43.726C67.1672 43.5767 67.2932 43.3667 67.2932 43.096C67.2932 42.9187 67.2326 42.7647 67.1112 42.634C66.9992 42.494 66.7799 42.3867 66.4532 42.312L64.9832 42.004C64.2366 41.8547 63.7046 41.6167 63.3872 41.29C63.0699 40.954 62.9112 40.5293 62.9112 40.016C62.9112 39.6333 63.0232 39.2787 63.2472 38.952C63.4712 38.6253 63.7979 38.364 64.2272 38.168C64.6659 37.9627 65.1886 37.86 65.7952 37.86C66.4952 37.86 67.0926 37.986 67.5872 38.238C68.0819 38.4807 68.4599 38.8307 68.7212 39.288L67.6852 40.156C67.5079 39.7827 67.2466 39.5073 66.9012 39.33C66.5559 39.1433 66.1966 39.05 65.8232 39.05C65.5246 39.05 65.2679 39.0873 65.0532 39.162C64.8386 39.2367 64.6752 39.3393 64.5632 39.47C64.4512 39.6007 64.3952 39.7547 64.3952 39.932C64.3952 40.1187 64.4652 40.282 64.6052 40.422C64.7452 40.562 64.9972 40.6693 65.3612 40.744L66.9572 41.08C67.6292 41.2107 68.1006 41.4347 68.3712 41.752C68.6512 42.06 68.7912 42.438 68.7912 42.886C68.7912 43.334 68.6746 43.7307 68.4412 44.076C68.2079 44.412 67.8719 44.6733 67.4332 44.86C66.9946 45.0467 66.4719 45.14 65.8652 45.14Z" fill="#062C08"/>
</svg>
