<svg width="24" height="24" viewBox="0 0 24 24" fill="none" xmlns="http://www.w3.org/2000/svg">
<path d="M19.7453 13C20.5362 11.8662 21 10.4872 21 9C21 5.13401 17.866 2 14 2C10.134 2 7 5.134 7 9C7 10.0736 7.24169 11.0907 7.67363 12" fill="#062C08"/>
<path d="M19.7453 13C20.5362 11.8662 21 10.4872 21 9C21 5.13401 17.866 2 14 2C10.134 2 7 5.134 7 9C7 10.0736 7.24169 11.0907 7.67363 12L19.7453 13Z" stroke="#062C08" stroke-width="1.5" stroke-linecap="round" stroke-linejoin="round"/>
<path d="M14 5C12.8954 5 12 5.67157 12 6.5C12 7.32843 12.8954 8 14 8C15.1046 8 16 8.67157 16 9.5C16 10.3284 15.1046 11 14 11M14 5C14.8708 5 15.6116 5.4174 15.8862 6M14 5V4M14 11C13.1292 11 12.3884 10.5826 12.1138 10M14 11V12" stroke="white" stroke-width="1.5" stroke-linecap="round"/>
<path d="M3 14H5.39482C5.68897 14 5.97908 14.0663 6.24217 14.1936L8.28415 15.1816C8.54724 15.3089 8.83735 15.3751 9.1315 15.3751H10.1741C11.1825 15.3751 12 16.1662 12 17.142C12 17.1814 11.973 17.2161 11.9338 17.2269L9.39287 17.9295C8.93707 18.0555 8.449 18.0116 8.025 17.8064L5.84211 16.7503M12 16.5L16.5928 15.0889C17.407 14.8352 18.2871 15.136 18.7971 15.8423C19.1659 16.3529 19.0157 17.0842 18.4785 17.3942L10.9629 21.7305C10.4849 22.0063 9.92094 22.0736 9.39516 21.9176L3 20.0199" fill="#062C08"/>
<path d="M3 14H5.39482C5.68897 14 5.97908 14.0663 6.24217 14.1936L8.28415 15.1816C8.54724 15.3089 8.83735 15.3751 9.1315 15.3751H10.1741C11.1825 15.3751 12 16.1662 12 17.142C12 17.1814 11.973 17.2161 11.9338 17.2269L9.39287 17.9295C8.93707 18.0555 8.449 18.0116 8.025 17.8064L5.84211 16.7503M12 16.5L16.5928 15.0889C17.407 14.8352 18.2871 15.136 18.7971 15.8423C19.1659 16.3529 19.0157 17.0842 18.4785 17.3942L10.9629 21.7305C10.4849 22.0063 9.92094 22.0736 9.39516 21.9176L3 20.0199" stroke="#062C08" stroke-width="1.5" stroke-linecap="round" stroke-linejoin="round"/>
</svg>
