<svg width="22" height="20" viewBox="0 0 22 20" fill="none" xmlns="http://www.w3.org/2000/svg">
<path d="M14.75 5C14.75 3.11438 14.75 2.17157 14.1642 1.58579C13.5784 1 12.6356 1 10.75 1C8.8644 1 7.92157 1 7.33579 1.58579C6.75 2.17157 6.75 3.11438 6.75 5" stroke="#141B34" stroke-width="1.5" stroke-linecap="round" stroke-linejoin="round"/>
<path d="M0.75 12C0.75 9.1911 0.75 7.78661 1.42412 6.77772C1.71596 6.34096 2.09096 5.96596 2.52772 5.67412C3.53661 5 4.94108 5 7.75 5H13.75C16.5589 5 17.9634 5 18.9723 5.67412C19.409 5.96596 19.784 6.34096 20.0759 6.77772C20.75 7.78661 20.75 9.1911 20.75 12C20.75 14.8089 20.75 16.2134 20.0759 17.2223C19.784 17.659 19.409 18.034 18.9723 18.3259C17.9634 19 16.5589 19 13.75 19H7.75C4.94108 19 3.53661 19 2.52772 18.3259C2.09096 18.034 1.71596 17.659 1.42412 17.2223C0.75 16.2134 0.75 14.8089 0.75 12Z" stroke="#141B34" stroke-width="1.5" stroke-linecap="round" stroke-linejoin="round"/>
<path d="M5.75 9.16602L6.29331 9.33435C9.15425 10.221 12.3457 10.221 15.2067 9.33435L15.75 9.16602M10.75 9.99935V11.666" stroke="#141B34" stroke-width="1.5" stroke-linecap="round" stroke-linejoin="round"/>
</svg>
