<svg width="19" height="20" viewBox="0 0 19 20" fill="none" xmlns="http://www.w3.org/2000/svg">
<g clip-path="url(#clip0_273_1153)">
<mask id="mask0_273_1153" style="mask-type:luminance" maskUnits="userSpaceOnUse" x="0" y="0" width="19" height="20">
<path d="M18.8175 8.14476H9.70237V11.9894H14.94C14.8558 12.5336 14.6667 13.0688 14.3899 13.5569C14.0727 14.1161 13.6805 14.5418 13.2786 14.866C12.0746 15.8372 10.6709 16.0358 9.69601 16.0358C7.23338 16.0358 5.12923 14.3604 4.31467 12.0838C4.2818 12.0012 4.25997 11.9159 4.23339 11.8315C4.05339 11.2521 3.95504 10.6384 3.95504 10.0006C3.95504 9.33685 4.06154 8.70145 4.25573 8.10134C5.02169 5.73451 7.17328 3.96672 9.69778 3.96672C10.2056 3.96672 10.6945 4.03034 11.1582 4.15724C12.218 4.44725 12.9676 5.01843 13.4269 5.47023L16.1985 2.61313C14.5126 0.985972 12.3148 2.46015e-09 9.69317 2.46015e-09C7.59735 -4.74827e-05 5.6624 0.687318 4.07677 1.84899C2.79087 2.79107 1.73625 4.0524 1.02452 5.51729C0.362497 6.87555 0 8.38075 0 9.99913C0 11.6176 0.363051 13.1384 1.02507 14.4841V14.4932C1.72433 15.9218 2.74688 17.1519 3.98969 18.0897C5.07541 18.9089 7.02221 20 9.69317 20C11.2292 20 12.5905 19.7085 13.791 19.1622C14.6571 18.7681 15.4245 18.2541 16.1192 17.5935C17.0372 16.7206 17.7561 15.6409 18.2468 14.3987C18.7375 13.1565 19 11.7518 19 10.2289C19 9.51963 18.9323 8.79934 18.8175 8.14469V8.14476Z" fill="white"/>
</mask>
<g mask="url(#mask0_273_1153)">
<g filter="url(#filter0_f_273_1153)">
<path d="M-0.139648 10.067C-0.129573 11.66 0.301626 13.3034 0.954319 14.6302V14.6393C1.42592 15.6028 2.07046 16.3639 2.80459 17.118L7.23851 15.415C6.39964 14.9665 6.27164 14.6916 5.6703 14.1901C5.05579 13.5379 4.59779 12.789 4.31257 11.911H4.30108L4.31257 11.9019C4.12492 11.3221 4.10641 10.7067 4.09949 10.067H-0.139648Z" fill="url(#paint0_radial_273_1153)"/>
</g>
<g filter="url(#filter1_f_273_1153)">
<path d="M9.70306 -0.0727234C9.26481 1.54794 9.43238 3.12327 9.70306 4.03987C10.2091 4.04027 10.6966 4.10377 11.1589 4.23027C12.2187 4.52029 12.9682 5.09148 13.4275 5.54328L16.27 2.61319C14.5861 0.987969 12.5596 -0.0701628 9.70306 -0.0727234Z" fill="url(#paint1_radial_273_1153)"/>
</g>
<g filter="url(#filter2_f_273_1153)">
<path d="M9.69277 -0.0855408C7.54315 -0.0855897 5.55853 0.619422 3.9322 1.81092C3.32834 2.25332 2.77419 2.76437 2.28075 3.33267C2.15148 4.60922 3.24842 6.17823 5.4207 6.16524C6.47467 4.8747 8.03347 4.03973 9.76843 4.03973C9.77001 4.03973 9.77155 4.03986 9.77313 4.03987L9.70228 -0.0852487C9.69908 -0.0852509 9.69597 -0.0855408 9.69277 -0.0855408Z" fill="url(#paint2_radial_273_1153)"/>
</g>
<g filter="url(#filter3_f_273_1153)">
<path d="M16.788 10.529L14.8693 11.9165C14.7851 12.4606 14.5959 12.9959 14.3191 13.4839C14.0019 14.0431 13.6098 14.4689 13.2078 14.7931C12.0063 15.7622 10.6063 15.9618 9.63171 15.9626C8.62436 17.7686 8.44775 18.6732 9.70256 20.1308C11.2553 20.1296 12.6318 19.8346 13.846 19.2821C14.7237 18.8827 15.5013 18.3618 16.2053 17.6923C17.1356 16.8077 17.8643 15.7135 18.3616 14.4547C18.8589 13.1958 19.1248 11.7723 19.1248 10.2289L16.788 10.529Z" fill="url(#paint3_radial_273_1153)"/>
</g>
<g filter="url(#filter4_f_273_1153)">
<path d="M9.56055 7.99872V12.1355H18.7918C18.873 11.569 19.1415 10.8359 19.1415 10.2289C19.1415 9.51968 19.0739 8.65337 18.9591 7.99872H9.56055Z" fill="#3086FF"/>
</g>
<g filter="url(#filter5_f_273_1153)">
<path d="M2.32509 3.18661C1.75543 3.84271 1.26876 4.57707 0.882887 5.37126C0.220879 6.72952 -0.141602 8.38078 -0.141602 9.99916C-0.141602 10.022 -0.139808 10.0443 -0.139664 10.0671C0.153519 10.6588 3.91013 10.5455 4.09948 10.0671C4.09924 10.0447 4.09685 10.023 4.09685 10.0006C4.09685 9.3368 4.20338 8.84755 4.39757 8.24743C4.63713 7.5072 5.01222 6.82556 5.49185 6.23826C5.60058 6.09214 5.8906 5.77802 5.97521 5.5896C6.00744 5.51784 5.9167 5.47755 5.91162 5.45229C5.90594 5.42404 5.78427 5.44676 5.75702 5.42571C5.67047 5.35889 5.49909 5.32399 5.39502 5.29298C5.17258 5.22668 4.80394 5.08047 4.59918 4.92892C3.95196 4.44985 2.94191 3.87761 2.32509 3.18661Z" fill="url(#paint4_radial_273_1153)"/>
</g>
<g filter="url(#filter6_f_273_1153)">
<path d="M4.61322 5.45513C6.11407 6.41212 6.54569 4.97208 7.54354 4.52146L5.80774 0.732422C5.16922 1.01492 4.56594 1.36589 4.00619 1.77597C3.17026 2.3884 2.43206 3.13574 1.82227 3.98622L4.61322 5.45513Z" fill="url(#paint5_radial_273_1153)"/>
</g>
<g filter="url(#filter7_f_273_1153)">
<path d="M5.22356 15.1223C3.20887 15.8879 2.89346 15.9154 2.70801 17.2297C3.0624 17.5937 3.44316 17.9305 3.84779 18.2358C4.93351 19.055 7.02197 20.1461 9.69293 20.1461C9.69607 20.1461 9.69907 20.1458 9.7022 20.1458V15.8896C9.70018 15.8896 9.69786 15.8897 9.69584 15.8897C8.69565 15.8897 7.89641 15.6132 7.07694 15.1323C6.87489 15.0138 6.50832 15.3321 6.32198 15.1898C6.06498 14.9935 5.44647 15.3589 5.22356 15.1223Z" fill="url(#paint6_radial_273_1153)"/>
</g>
<g opacity="0.5" filter="url(#filter8_f_273_1153)">
<path d="M8.52246 15.7555V20.072C8.89617 20.1181 9.2851 20.1461 9.69309 20.1461C10.1021 20.1461 10.4978 20.1239 10.8823 20.0833V15.7846C10.4514 15.8621 10.0456 15.8897 9.696 15.8897C9.29339 15.8897 8.90184 15.8404 8.52246 15.7555Z" fill="url(#paint7_linear_273_1153)"/>
</g>
</g>
</g>
<defs>
<filter id="filter0_f_273_1153" x="-0.609728" y="9.59697" width="8.31809" height="7.99115" filterUnits="userSpaceOnUse" color-interpolation-filters="sRGB">
<feFlood flood-opacity="0" result="BackgroundImageFix"/>
<feBlend mode="normal" in="SourceGraphic" in2="BackgroundImageFix" result="shape"/>
<feGaussianBlur stdDeviation="0.23504" result="effect1_foregroundBlur_273_1153"/>
</filter>
<filter id="filter1_f_273_1153" x="8.96351" y="-0.542803" width="7.77707" height="6.55616" filterUnits="userSpaceOnUse" color-interpolation-filters="sRGB">
<feFlood flood-opacity="0" result="BackgroundImageFix"/>
<feBlend mode="normal" in="SourceGraphic" in2="BackgroundImageFix" result="shape"/>
<feGaussianBlur stdDeviation="0.23504" result="effect1_foregroundBlur_273_1153"/>
</filter>
<filter id="filter2_f_273_1153" x="1.80043" y="-0.55562" width="8.44309" height="7.19101" filterUnits="userSpaceOnUse" color-interpolation-filters="sRGB">
<feFlood flood-opacity="0" result="BackgroundImageFix"/>
<feBlend mode="normal" in="SourceGraphic" in2="BackgroundImageFix" result="shape"/>
<feGaussianBlur stdDeviation="0.23504" result="effect1_foregroundBlur_273_1153"/>
</filter>
<filter id="filter3_f_273_1153" x="8.34828" y="9.75886" width="11.2468" height="10.842" filterUnits="userSpaceOnUse" color-interpolation-filters="sRGB">
<feFlood flood-opacity="0" result="BackgroundImageFix"/>
<feBlend mode="normal" in="SourceGraphic" in2="BackgroundImageFix" result="shape"/>
<feGaussianBlur stdDeviation="0.23504" result="effect1_foregroundBlur_273_1153"/>
</filter>
<filter id="filter4_f_273_1153" x="9.09047" y="7.52864" width="10.5212" height="5.077" filterUnits="userSpaceOnUse" color-interpolation-filters="sRGB">
<feFlood flood-opacity="0" result="BackgroundImageFix"/>
<feBlend mode="normal" in="SourceGraphic" in2="BackgroundImageFix" result="shape"/>
<feGaussianBlur stdDeviation="0.23504" result="effect1_foregroundBlur_273_1153"/>
</filter>
<filter id="filter5_f_273_1153" x="-0.611681" y="2.71654" width="7.06418" height="8.22303" filterUnits="userSpaceOnUse" color-interpolation-filters="sRGB">
<feFlood flood-opacity="0" result="BackgroundImageFix"/>
<feBlend mode="normal" in="SourceGraphic" in2="BackgroundImageFix" result="shape"/>
<feGaussianBlur stdDeviation="0.23504" result="effect1_foregroundBlur_273_1153"/>
</filter>
<filter id="filter6_f_273_1153" x="-1.48258" y="-2.57243" width="12.3314" height="11.654" filterUnits="userSpaceOnUse" color-interpolation-filters="sRGB">
<feFlood flood-opacity="0" result="BackgroundImageFix"/>
<feBlend mode="normal" in="SourceGraphic" in2="BackgroundImageFix" result="shape"/>
<feGaussianBlur stdDeviation="1.65243" result="effect1_foregroundBlur_273_1153"/>
</filter>
<filter id="filter7_f_273_1153" x="2.23793" y="14.6352" width="7.9343" height="5.98096" filterUnits="userSpaceOnUse" color-interpolation-filters="sRGB">
<feFlood flood-opacity="0" result="BackgroundImageFix"/>
<feBlend mode="normal" in="SourceGraphic" in2="BackgroundImageFix" result="shape"/>
<feGaussianBlur stdDeviation="0.23504" result="effect1_foregroundBlur_273_1153"/>
</filter>
<filter id="filter8_f_273_1153" x="8.05238" y="15.2854" width="3.29953" height="5.33072" filterUnits="userSpaceOnUse" color-interpolation-filters="sRGB">
<feFlood flood-opacity="0" result="BackgroundImageFix"/>
<feBlend mode="normal" in="SourceGraphic" in2="BackgroundImageFix" result="shape"/>
<feGaussianBlur stdDeviation="0.23504" result="effect1_foregroundBlur_273_1153"/>
</filter>
<radialGradient id="paint0_radial_273_1153" cx="0" cy="0" r="1" gradientTransform="matrix(-0.394821 -9.95993 14.1954 -0.597686 7.14975 16.968)" gradientUnits="userSpaceOnUse">
<stop offset="0.141612" stop-color="#1ABD4D"/>
<stop offset="0.247515" stop-color="#6EC30D"/>
<stop offset="0.311547" stop-color="#8AC502"/>
<stop offset="0.366013" stop-color="#A2C600"/>
<stop offset="0.445673" stop-color="#C8C903"/>
<stop offset="0.540305" stop-color="#EBCB03"/>
<stop offset="0.615636" stop-color="#F7CD07"/>
<stop offset="0.699345" stop-color="#FDCD04"/>
<stop offset="0.771242" stop-color="#FDCE05"/>
<stop offset="0.860566" stop-color="#FFCE0A"/>
</radialGradient>
<radialGradient id="paint1_radial_273_1153" cx="0" cy="0" r="1" gradientTransform="matrix(6.70515 -1.69631e-05 -9.42436e-06 8.92438 16.0041 5.33128)" gradientUnits="userSpaceOnUse">
<stop offset="0.408458" stop-color="#FB4E5A"/>
<stop offset="1" stop-color="#FF4540"/>
</radialGradient>
<radialGradient id="paint2_radial_273_1153" cx="0" cy="0" r="1" gradientTransform="matrix(-9.39441 5.36243 7.06068 13.1383 12.3416 -1.37738)" gradientUnits="userSpaceOnUse">
<stop offset="0.231273" stop-color="#FF4541"/>
<stop offset="0.311547" stop-color="#FF4540"/>
<stop offset="0.457516" stop-color="#FF4640"/>
<stop offset="0.540305" stop-color="#FF473F"/>
<stop offset="0.699346" stop-color="#FF5138"/>
<stop offset="0.771242" stop-color="#FF5B33"/>
<stop offset="0.860566" stop-color="#FF6C29"/>
<stop offset="1" stop-color="#FF8C18"/>
</radialGradient>
<radialGradient id="paint3_radial_273_1153" cx="0" cy="0" r="1" gradientTransform="matrix(-17.037 -22.9206 -8.2093 6.48127 9.84222 18.8364)" gradientUnits="userSpaceOnUse">
<stop offset="0.131546" stop-color="#0CBA65"/>
<stop offset="0.209784" stop-color="#0BB86D"/>
<stop offset="0.297297" stop-color="#09B479"/>
<stop offset="0.396257" stop-color="#08AD93"/>
<stop offset="0.477124" stop-color="#0AA6A9"/>
<stop offset="0.568425" stop-color="#0D9CC6"/>
<stop offset="0.667385" stop-color="#1893DD"/>
<stop offset="0.768727" stop-color="#258BF1"/>
<stop offset="0.858506" stop-color="#3086FF"/>
</radialGradient>
<radialGradient id="paint4_radial_273_1153" cx="0" cy="0" r="1" gradientTransform="matrix(-1.20567 10.7101 14.3688 1.71807 8.87001 1.80339)" gradientUnits="userSpaceOnUse">
<stop offset="0.366013" stop-color="#FF4E3A"/>
<stop offset="0.457516" stop-color="#FF8A1B"/>
<stop offset="0.540305" stop-color="#FFA312"/>
<stop offset="0.615636" stop-color="#FFB60C"/>
<stop offset="0.771242" stop-color="#FFCD0A"/>
<stop offset="0.860566" stop-color="#FECF0A"/>
<stop offset="0.915033" stop-color="#FECF08"/>
<stop offset="1" stop-color="#FDCD01"/>
</radialGradient>
<radialGradient id="paint5_radial_273_1153" cx="0" cy="0" r="1" gradientTransform="matrix(-3.48502 3.97231 -10.8713 -10.1305 7.17467 1.6923)" gradientUnits="userSpaceOnUse">
<stop offset="0.315904" stop-color="#FF4C3C"/>
<stop offset="0.603818" stop-color="#FF692C"/>
<stop offset="0.726837" stop-color="#FF7825"/>
<stop offset="0.884534" stop-color="#FF8D1B"/>
<stop offset="1" stop-color="#FF9F13"/>
</radialGradient>
<radialGradient id="paint6_radial_273_1153" cx="0" cy="0" r="1" gradientTransform="matrix(-9.3944 -5.36243 7.06068 -13.1383 12.3415 21.3771)" gradientUnits="userSpaceOnUse">
<stop offset="0.231273" stop-color="#0FBC5F"/>
<stop offset="0.311547" stop-color="#0FBC5F"/>
<stop offset="0.366013" stop-color="#0FBC5E"/>
<stop offset="0.457516" stop-color="#0FBC5D"/>
<stop offset="0.540305" stop-color="#12BC58"/>
<stop offset="0.699346" stop-color="#28BF3C"/>
<stop offset="0.771242" stop-color="#38C02B"/>
<stop offset="0.860566" stop-color="#52C218"/>
<stop offset="0.915033" stop-color="#67C30F"/>
<stop offset="1" stop-color="#86C504"/>
</radialGradient>
<linearGradient id="paint7_linear_273_1153" x1="8.52246" y1="17.9508" x2="10.8823" y2="17.9508" gradientUnits="userSpaceOnUse">
<stop stop-color="#0FBC5C"/>
<stop offset="1" stop-color="#0CBA65"/>
</linearGradient>
<clipPath id="clip0_273_1153">
<rect width="19" height="20" fill="white"/>
</clipPath>
</defs>
</svg>
