<svg width="24" height="24" viewBox="0 0 24 24" fill="none" xmlns="http://www.w3.org/2000/svg">
<path d="M19 3H5C3.9 3 3 3.9 3 5V19C3 20.1 3.9 21 5 21H19C20.1 21 21 20.1 21 19V5C21 3.9 20.1 3 19 3ZM19 19H5V5H19V19Z" stroke="#9CA3AF" stroke-width="1.5" fill="none"/>
<path d="M7 7H9V9H7V7Z" fill="#9CA3AF"/>
<path d="M7 11H9V13H7V11Z" fill="#9CA3AF"/>
<path d="M7 15H9V17H7V15Z" fill="#9CA3AF"/>
<path d="M11 7H17V9H11V7Z" fill="#9CA3AF"/>
<path d="M11 11H17V13H11V11Z" fill="#9CA3AF"/>
<path d="M11 15H17V17H11V15Z" fill="#9CA3AF"/>
</svg>
