<svg width="20" height="20" viewBox="0 0 20 20" fill="none" xmlns="http://www.w3.org/2000/svg">
<path d="M10.5813 2.91667H9.41934C8.82384 2.91667 8.52609 2.91667 8.25907 3.01C8.096 3.06699 7.94278 3.14899 7.80491 3.25306C7.57912 3.42347 7.41397 3.6712 7.08366 4.16667C6.91449 4.42043 6.66513 4.79448 6.56573 4.89893C6.31946 5.15773 5.99653 5.33055 5.64458 5.39191C5.50254 5.41667 5.35005 5.41667 5.04507 5.41667C4.22833 5.41667 3.81998 5.41667 3.48607 5.51118C2.65079 5.74763 1.99796 6.40046 1.76151 7.23574C1.66699 7.56964 1.66699 7.97801 1.66699 8.79475V12.0833C1.66699 14.4403 1.66699 15.6188 2.39923 16.3511C3.13146 17.0833 4.30998 17.0833 6.66699 17.0833H13.3337C15.6907 17.0833 16.8692 17.0833 17.6014 16.3511C18.3337 15.6188 18.3337 14.4403 18.3337 12.0833V8.79475C18.3337 7.97801 18.3337 7.56964 18.2392 7.23574C18.0027 6.40046 17.3498 5.74763 16.5146 5.51118C16.1807 5.41667 15.7723 5.41667 14.9556 5.41667C14.6506 5.41667 14.4981 5.41667 14.3561 5.39191C14.0041 5.33055 13.6812 5.15773 13.4349 4.89893C13.3355 4.79447 13.0862 4.42043 12.917 4.16667C12.5867 3.6712 12.4215 3.42347 12.1958 3.25306C12.0578 3.14899 11.9047 3.06699 11.7416 3.01C11.4746 2.91667 11.1768 2.91667 10.5813 2.91667Z" stroke="#171717" stroke-width="1.5" stroke-linecap="round" stroke-linejoin="round"/>
<path d="M13.3337 10.8333C13.3337 12.6742 11.8413 14.1667 10.0003 14.1667C8.15938 14.1667 6.66699 12.6742 6.66699 10.8333C6.66699 8.99242 8.15938 7.5 10.0003 7.5C11.8413 7.5 13.3337 8.99242 13.3337 10.8333Z" stroke="#171717" stroke-width="1.5" stroke-linecap="round" stroke-linejoin="round"/>
<path d="M15.8335 7.91667V7.925" stroke="#171717" stroke-width="2" stroke-linecap="round" stroke-linejoin="round"/>
</svg>
